<svg xmlns="http://www.w3.org/2000/svg" xmlns:xlink="http://www.w3.org/1999/xlink" version="1.1" x="0px" y="0px" viewBox="0 0 512 640" enable-background="new 0 0 512 512" xml:space="preserve"><g><g><g><path d="M252.27,498.08c-2.2,0-4-1.8-4-4.011c0-2.199,1.8-4,4-4H492V380.8c0-2.2,1.79-4,4-4c2.2,0,4,1.8,4,4V494.07     c0,1.069-0.42,2.08-1.17,2.83c-0.761,0.761-1.761,1.17-2.83,1.17L252.27,498.08z M182.27,498.069H16.94     c-1.05,0-2.08-0.42-2.83-1.17c-0.74-0.739-1.17-1.779-1.17-2.83V302.41c0-2.21,1.79-4,4-4c2.2,0,4,1.79,4,4v187.659h161.33     c2.21,0,4,1.801,4,4C186.27,496.28,184.48,498.069,182.27,498.069z M496,314.8c-2.21,0-4-1.79-4-4V22.859h-61.061     c-2.211,0-4-1.79-4-4c0-2.199,1.789-4,4-4H496c1.05,0,2.08,0.431,2.83,1.181c0.739,0.74,1.17,1.77,1.17,2.819V310.8     C500,313.01,498.21,314.8,496,314.8z M16.94,236.41c-2.21,0-4-1.801-4-4V18.859c0-1.05,0.43-2.079,1.17-2.819     c0.74-0.75,1.77-1.181,2.83-1.181h344c2.199,0,4,1.801,4,4c0,2.21-1.801,4-4,4h-340V232.41     C20.94,234.609,19.14,236.41,16.94,236.41z"/></g></g></g></svg>